<mxfile host="app.diagrams.net" modified="2023-11-02T17:23:18.461Z" agent="Mozilla/5.0 (Windows NT 10.0; Win64; x64) AppleWebKit/537.36 (KHTML, like Gecko) Chrome/117.0.0.0 Safari/537.36 Edg/117.0.2045.60" etag="KFqlFPtBUudibABHfYWW" version="22.0.8" type="device">
  <diagram name="Page-1" id="2g5yF2747vjrLYCgbc-5">
    <mxGraphModel dx="1510" dy="1123" grid="1" gridSize="10" guides="1" tooltips="1" connect="1" arrows="1" fold="1" page="1" pageScale="1" pageWidth="350" pageHeight="350" math="0" shadow="0">
      <root>
        <mxCell id="0" />
        <mxCell id="1" parent="0" />
        <mxCell id="dTC-a_TBTUMV0dxDT_bO-8" style="edgeStyle=orthogonalEdgeStyle;rounded=0;orthogonalLoop=1;jettySize=auto;html=1;exitX=1;exitY=0.5;exitDx=0;exitDy=0;fontSize=14;" edge="1" parent="1" source="dTC-a_TBTUMV0dxDT_bO-1" target="dTC-a_TBTUMV0dxDT_bO-4">
          <mxGeometry relative="1" as="geometry" />
        </mxCell>
        <mxCell id="dTC-a_TBTUMV0dxDT_bO-1" value="&lt;font style=&quot;font-size: 14px;&quot;&gt;Preprocess dataset and train the model&lt;/font&gt;" style="whiteSpace=wrap;html=1;aspect=fixed;fillColor=#f8cecc;strokeColor=#b85450;fontSize=14;" vertex="1" parent="1">
          <mxGeometry x="70" y="30" width="80" height="80" as="geometry" />
        </mxCell>
        <mxCell id="dTC-a_TBTUMV0dxDT_bO-7" style="edgeStyle=orthogonalEdgeStyle;rounded=0;orthogonalLoop=1;jettySize=auto;html=1;entryX=0.5;entryY=0;entryDx=0;entryDy=0;fontSize=14;" edge="1" parent="1" source="dTC-a_TBTUMV0dxDT_bO-2" target="dTC-a_TBTUMV0dxDT_bO-1">
          <mxGeometry relative="1" as="geometry" />
        </mxCell>
        <mxCell id="dTC-a_TBTUMV0dxDT_bO-2" value="&lt;font style=&quot;font-size: 14px;&quot;&gt;START&lt;/font&gt;" style="html=1;dashed=0;whiteSpace=wrap;shape=mxgraph.dfd.start;fontSize=14;" vertex="1" parent="1">
          <mxGeometry x="70" y="-73.75" width="80" height="30" as="geometry" />
        </mxCell>
        <mxCell id="dTC-a_TBTUMV0dxDT_bO-3" value="END" style="html=1;dashed=0;whiteSpace=wrap;shape=mxgraph.dfd.start;fontSize=14;" vertex="1" parent="1">
          <mxGeometry x="900" y="-60" width="80" height="30" as="geometry" />
        </mxCell>
        <mxCell id="dTC-a_TBTUMV0dxDT_bO-61" style="edgeStyle=orthogonalEdgeStyle;rounded=0;orthogonalLoop=1;jettySize=auto;html=1;entryX=0.5;entryY=1;entryDx=0;entryDy=0;fontSize=14;" edge="1" parent="1" source="dTC-a_TBTUMV0dxDT_bO-4" target="dTC-a_TBTUMV0dxDT_bO-10">
          <mxGeometry relative="1" as="geometry" />
        </mxCell>
        <mxCell id="dTC-a_TBTUMV0dxDT_bO-4" value="Get user text as input" style="shape=parallelogram;perimeter=parallelogramPerimeter;whiteSpace=wrap;html=1;fixedSize=1;fillColor=#f8cecc;strokeColor=#b85450;fontSize=14;" vertex="1" parent="1">
          <mxGeometry x="180" y="50" width="130" height="40" as="geometry" />
        </mxCell>
        <mxCell id="dTC-a_TBTUMV0dxDT_bO-63" style="edgeStyle=orthogonalEdgeStyle;rounded=0;orthogonalLoop=1;jettySize=auto;html=1;entryX=0;entryY=0.5;entryDx=0;entryDy=0;fontSize=14;" edge="1" parent="1" source="dTC-a_TBTUMV0dxDT_bO-10" target="dTC-a_TBTUMV0dxDT_bO-47">
          <mxGeometry relative="1" as="geometry">
            <Array as="points">
              <mxPoint x="240" y="-145" />
            </Array>
          </mxGeometry>
        </mxCell>
        <mxCell id="dTC-a_TBTUMV0dxDT_bO-64" value="Final User Text&amp;nbsp;&lt;br style=&quot;border-color: var(--border-color); font-size: 14px;&quot;&gt;&lt;span style=&quot;font-size: 14px;&quot;&gt;(FUT)&lt;/span&gt;" style="edgeLabel;html=1;align=center;verticalAlign=middle;resizable=0;points=[];fontSize=14;" vertex="1" connectable="0" parent="dTC-a_TBTUMV0dxDT_bO-63">
          <mxGeometry x="-0.4148" y="3" relative="1" as="geometry">
            <mxPoint as="offset" />
          </mxGeometry>
        </mxCell>
        <mxCell id="dTC-a_TBTUMV0dxDT_bO-10" value="Preprocess User text" style="whiteSpace=wrap;html=1;aspect=fixed;fillColor=#dae8fc;strokeColor=#6c8ebf;fontSize=14;" vertex="1" parent="1">
          <mxGeometry x="210" y="-60" width="70" height="70" as="geometry" />
        </mxCell>
        <mxCell id="dTC-a_TBTUMV0dxDT_bO-21" style="edgeStyle=orthogonalEdgeStyle;rounded=0;orthogonalLoop=1;jettySize=auto;html=1;entryX=0.5;entryY=0;entryDx=0;entryDy=0;fontSize=14;" edge="1" parent="1" source="dTC-a_TBTUMV0dxDT_bO-14" target="dTC-a_TBTUMV0dxDT_bO-20">
          <mxGeometry relative="1" as="geometry" />
        </mxCell>
        <mxCell id="dTC-a_TBTUMV0dxDT_bO-23" value="Predicted Department" style="edgeLabel;html=1;align=center;verticalAlign=middle;resizable=0;points=[];fontSize=14;" vertex="1" connectable="0" parent="dTC-a_TBTUMV0dxDT_bO-21">
          <mxGeometry x="-0.2696" relative="1" as="geometry">
            <mxPoint as="offset" />
          </mxGeometry>
        </mxCell>
        <mxCell id="dTC-a_TBTUMV0dxDT_bO-14" value="Classify the text using the trained model, and then getting dept. name" style="whiteSpace=wrap;html=1;aspect=fixed;fillColor=#d5e8d4;strokeColor=#82b366;fontSize=14;" vertex="1" parent="1">
          <mxGeometry x="681.25" y="-188.75" width="98.75" height="98.75" as="geometry" />
        </mxCell>
        <mxCell id="dTC-a_TBTUMV0dxDT_bO-42" style="edgeStyle=orthogonalEdgeStyle;rounded=0;orthogonalLoop=1;jettySize=auto;html=1;entryX=0;entryY=0;entryDx=0;entryDy=0;fontSize=14;" edge="1" parent="1" source="dTC-a_TBTUMV0dxDT_bO-15" target="dTC-a_TBTUMV0dxDT_bO-20">
          <mxGeometry relative="1" as="geometry">
            <Array as="points">
              <mxPoint x="702" y="-4" />
            </Array>
          </mxGeometry>
        </mxCell>
        <mxCell id="dTC-a_TBTUMV0dxDT_bO-43" value="Time, Name" style="edgeLabel;html=1;align=center;verticalAlign=middle;resizable=0;points=[];fontSize=14;" vertex="1" connectable="0" parent="dTC-a_TBTUMV0dxDT_bO-42">
          <mxGeometry x="-0.5167" relative="1" as="geometry">
            <mxPoint as="offset" />
          </mxGeometry>
        </mxCell>
        <mxCell id="dTC-a_TBTUMV0dxDT_bO-15" value="Get Name and Time entities" style="whiteSpace=wrap;html=1;aspect=fixed;fillColor=#dae8fc;strokeColor=#6c8ebf;fontSize=14;" vertex="1" parent="1">
          <mxGeometry x="330" y="-43.75" width="80" height="80" as="geometry" />
        </mxCell>
        <mxCell id="dTC-a_TBTUMV0dxDT_bO-45" style="edgeStyle=orthogonalEdgeStyle;rounded=0;orthogonalLoop=1;jettySize=auto;html=1;fontSize=14;entryX=0;entryY=0.5;entryDx=0;entryDy=0;" edge="1" parent="1" source="dTC-a_TBTUMV0dxDT_bO-16" target="dTC-a_TBTUMV0dxDT_bO-34">
          <mxGeometry relative="1" as="geometry">
            <mxPoint x="700" y="-330" as="targetPoint" />
            <Array as="points">
              <mxPoint x="556" y="-282" />
              <mxPoint x="692" y="-282" />
            </Array>
          </mxGeometry>
        </mxCell>
        <mxCell id="dTC-a_TBTUMV0dxDT_bO-46" value="Final Tokens" style="edgeLabel;html=1;align=center;verticalAlign=middle;resizable=0;points=[];fontSize=14;" vertex="1" connectable="0" parent="dTC-a_TBTUMV0dxDT_bO-45">
          <mxGeometry x="-0.0095" y="1" relative="1" as="geometry">
            <mxPoint as="offset" />
          </mxGeometry>
        </mxCell>
        <mxCell id="dTC-a_TBTUMV0dxDT_bO-16" value="Now removing stop words, spaces, punctuation using Spacy&#39;s pipeline" style="whiteSpace=wrap;html=1;aspect=fixed;fillColor=#dae8fc;strokeColor=#6c8ebf;fontSize=14;" vertex="1" parent="1">
          <mxGeometry x="510" y="-192" width="102" height="102" as="geometry" />
        </mxCell>
        <mxCell id="dTC-a_TBTUMV0dxDT_bO-22" style="edgeStyle=orthogonalEdgeStyle;rounded=0;orthogonalLoop=1;jettySize=auto;html=1;exitX=0;exitY=0.5;exitDx=0;exitDy=0;fontSize=14;" edge="1" parent="1" source="dTC-a_TBTUMV0dxDT_bO-20" target="dTC-a_TBTUMV0dxDT_bO-4">
          <mxGeometry relative="1" as="geometry" />
        </mxCell>
        <mxCell id="dTC-a_TBTUMV0dxDT_bO-24" value="NO" style="edgeLabel;html=1;align=center;verticalAlign=middle;resizable=0;points=[];fontSize=14;" vertex="1" connectable="0" parent="dTC-a_TBTUMV0dxDT_bO-22">
          <mxGeometry x="-0.0237" y="-2" relative="1" as="geometry">
            <mxPoint as="offset" />
          </mxGeometry>
        </mxCell>
        <mxCell id="dTC-a_TBTUMV0dxDT_bO-26" style="edgeStyle=orthogonalEdgeStyle;rounded=0;orthogonalLoop=1;jettySize=auto;html=1;exitX=0.5;exitY=1;exitDx=0;exitDy=0;entryX=0.5;entryY=0;entryDx=0;entryDy=0;fontSize=14;" edge="1" parent="1" source="dTC-a_TBTUMV0dxDT_bO-20" target="dTC-a_TBTUMV0dxDT_bO-25">
          <mxGeometry relative="1" as="geometry" />
        </mxCell>
        <mxCell id="dTC-a_TBTUMV0dxDT_bO-27" value="YES" style="edgeLabel;html=1;align=center;verticalAlign=middle;resizable=0;points=[];fontSize=14;" vertex="1" connectable="0" parent="dTC-a_TBTUMV0dxDT_bO-26">
          <mxGeometry x="-0.2817" y="-1" relative="1" as="geometry">
            <mxPoint as="offset" />
          </mxGeometry>
        </mxCell>
        <mxCell id="dTC-a_TBTUMV0dxDT_bO-20" value="Confirm if user wantâ€™s to continue booking with the current information" style="rhombus;whiteSpace=wrap;html=1;fillColor=#fff2cc;strokeColor=#d6b656;fontSize=14;" vertex="1" parent="1">
          <mxGeometry x="630" y="-5" width="200" height="150" as="geometry" />
        </mxCell>
        <mxCell id="dTC-a_TBTUMV0dxDT_bO-31" style="edgeStyle=orthogonalEdgeStyle;rounded=0;orthogonalLoop=1;jettySize=auto;html=1;entryX=1;entryY=0.5;entryDx=0;entryDy=0;fontSize=14;" edge="1" parent="1" source="dTC-a_TBTUMV0dxDT_bO-25" target="dTC-a_TBTUMV0dxDT_bO-29">
          <mxGeometry relative="1" as="geometry" />
        </mxCell>
        <mxCell id="dTC-a_TBTUMV0dxDT_bO-33" value="NO" style="edgeLabel;html=1;align=center;verticalAlign=middle;resizable=0;points=[];fontSize=14;" vertex="1" connectable="0" parent="dTC-a_TBTUMV0dxDT_bO-31">
          <mxGeometry x="-0.0894" y="2" relative="1" as="geometry">
            <mxPoint as="offset" />
          </mxGeometry>
        </mxCell>
        <mxCell id="dTC-a_TBTUMV0dxDT_bO-57" style="edgeStyle=orthogonalEdgeStyle;rounded=0;orthogonalLoop=1;jettySize=auto;html=1;fontSize=14;" edge="1" parent="1" source="dTC-a_TBTUMV0dxDT_bO-25" target="dTC-a_TBTUMV0dxDT_bO-56">
          <mxGeometry relative="1" as="geometry" />
        </mxCell>
        <mxCell id="dTC-a_TBTUMV0dxDT_bO-59" value="YES" style="edgeLabel;html=1;align=center;verticalAlign=middle;resizable=0;points=[];fontSize=14;" vertex="1" connectable="0" parent="dTC-a_TBTUMV0dxDT_bO-57">
          <mxGeometry x="-0.557" relative="1" as="geometry">
            <mxPoint as="offset" />
          </mxGeometry>
        </mxCell>
        <mxCell id="dTC-a_TBTUMV0dxDT_bO-25" value="Check if slots are available" style="rhombus;whiteSpace=wrap;html=1;fillColor=#fff2cc;strokeColor=#d6b656;fontSize=14;" vertex="1" parent="1">
          <mxGeometry x="680" y="210" width="100" height="120" as="geometry" />
        </mxCell>
        <mxCell id="dTC-a_TBTUMV0dxDT_bO-62" style="edgeStyle=orthogonalEdgeStyle;rounded=0;orthogonalLoop=1;jettySize=auto;html=1;entryX=0.5;entryY=1;entryDx=0;entryDy=0;fontSize=14;" edge="1" parent="1" source="dTC-a_TBTUMV0dxDT_bO-29" target="dTC-a_TBTUMV0dxDT_bO-4">
          <mxGeometry relative="1" as="geometry" />
        </mxCell>
        <mxCell id="dTC-a_TBTUMV0dxDT_bO-29" value="Print no slots available for the specified time" style="shape=parallelogram;perimeter=parallelogramPerimeter;whiteSpace=wrap;html=1;fixedSize=1;fillColor=#fff2cc;strokeColor=#d6b656;fontSize=14;" vertex="1" parent="1">
          <mxGeometry x="180" y="245" width="130" height="50" as="geometry" />
        </mxCell>
        <mxCell id="dTC-a_TBTUMV0dxDT_bO-37" style="edgeStyle=orthogonalEdgeStyle;rounded=0;orthogonalLoop=1;jettySize=auto;html=1;entryX=0.5;entryY=0;entryDx=0;entryDy=0;fontSize=14;" edge="1" parent="1" source="dTC-a_TBTUMV0dxDT_bO-34" target="dTC-a_TBTUMV0dxDT_bO-14">
          <mxGeometry relative="1" as="geometry" />
        </mxCell>
        <mxCell id="dTC-a_TBTUMV0dxDT_bO-38" value="Vectorized text" style="edgeLabel;html=1;align=center;verticalAlign=middle;resizable=0;points=[];fontSize=14;" vertex="1" connectable="0" parent="dTC-a_TBTUMV0dxDT_bO-37">
          <mxGeometry x="-0.2605" y="-3" relative="1" as="geometry">
            <mxPoint as="offset" />
          </mxGeometry>
        </mxCell>
        <mxCell id="dTC-a_TBTUMV0dxDT_bO-34" value="Vectorizing final tokens using TfidfVectorizer" style="whiteSpace=wrap;html=1;aspect=fixed;fillColor=#dae8fc;strokeColor=#6c8ebf;fontSize=14;" vertex="1" parent="1">
          <mxGeometry x="685" y="-330" width="95" height="95" as="geometry" />
        </mxCell>
        <mxCell id="dTC-a_TBTUMV0dxDT_bO-53" style="edgeStyle=orthogonalEdgeStyle;rounded=0;orthogonalLoop=1;jettySize=auto;html=1;entryX=0.5;entryY=0;entryDx=0;entryDy=0;fontSize=14;" edge="1" parent="1" source="dTC-a_TBTUMV0dxDT_bO-47" target="dTC-a_TBTUMV0dxDT_bO-15">
          <mxGeometry relative="1" as="geometry" />
        </mxCell>
        <mxCell id="dTC-a_TBTUMV0dxDT_bO-54" value="Doc obj." style="edgeLabel;html=1;align=center;verticalAlign=middle;resizable=0;points=[];fontSize=14;" vertex="1" connectable="0" parent="dTC-a_TBTUMV0dxDT_bO-53">
          <mxGeometry x="-0.187" y="1" relative="1" as="geometry">
            <mxPoint as="offset" />
          </mxGeometry>
        </mxCell>
        <mxCell id="dTC-a_TBTUMV0dxDT_bO-47" value="Applying Spacy&#39;s Pipeline (tokenization, NER, etc.)&lt;br style=&quot;font-size: 14px;&quot;&gt;&amp;amp; store it in doc object" style="whiteSpace=wrap;html=1;aspect=fixed;fillColor=#dae8fc;strokeColor=#6c8ebf;fontSize=14;" vertex="1" parent="1">
          <mxGeometry x="315" y="-200" width="110" height="110" as="geometry" />
        </mxCell>
        <mxCell id="dTC-a_TBTUMV0dxDT_bO-51" style="edgeStyle=orthogonalEdgeStyle;rounded=0;orthogonalLoop=1;jettySize=auto;html=1;entryX=0.006;entryY=0.433;entryDx=0;entryDy=0;entryPerimeter=0;fontSize=14;" edge="1" parent="1" source="dTC-a_TBTUMV0dxDT_bO-47" target="dTC-a_TBTUMV0dxDT_bO-16">
          <mxGeometry relative="1" as="geometry" />
        </mxCell>
        <mxCell id="dTC-a_TBTUMV0dxDT_bO-52" value="Doc obj." style="edgeLabel;html=1;align=center;verticalAlign=middle;resizable=0;points=[];fontSize=14;" vertex="1" connectable="0" parent="dTC-a_TBTUMV0dxDT_bO-51">
          <mxGeometry x="-0.1188" y="1" relative="1" as="geometry">
            <mxPoint as="offset" />
          </mxGeometry>
        </mxCell>
        <mxCell id="dTC-a_TBTUMV0dxDT_bO-56" value="Print the Doctor&#39;s Appointment Receipt" style="shape=parallelogram;perimeter=parallelogramPerimeter;whiteSpace=wrap;html=1;fixedSize=1;fillColor=#fff2cc;strokeColor=#d6b656;fontSize=14;" vertex="1" parent="1">
          <mxGeometry x="860" y="30" width="160" height="80" as="geometry" />
        </mxCell>
        <mxCell id="dTC-a_TBTUMV0dxDT_bO-60" style="edgeStyle=orthogonalEdgeStyle;rounded=0;orthogonalLoop=1;jettySize=auto;html=1;entryX=0.5;entryY=0.5;entryDx=0;entryDy=15;entryPerimeter=0;fontSize=14;" edge="1" parent="1" source="dTC-a_TBTUMV0dxDT_bO-56" target="dTC-a_TBTUMV0dxDT_bO-3">
          <mxGeometry relative="1" as="geometry" />
        </mxCell>
      </root>
    </mxGraphModel>
  </diagram>
</mxfile>
